<svg xmlns="http://www.w3.org/2000/svg" width="800" height="1000" viewBox="0 0 800 1000" fill="none">
  <defs>
    <linearGradient id="bg" x1="0" y1="0" x2="1" y2="1">
      <stop offset="0" stop-color="#f59e0b"/>
      <stop offset="1" stop-color="#ea580c"/>
    </linearGradient>
    <filter id="blur" x="-50%" y="-50%" width="200%" height="200%">
      <feGaussianBlur stdDeviation="70"/>
    </filter>
  </defs>
  <rect width="800" height="1000" fill="url(#bg)"/>
  <g filter="url(#blur)">
    <circle cx="200" cy="240" r="200" fill="#fcd34d" opacity="0.6"/>
    <circle cx="640" cy="520" r="240" fill="#fb923c" opacity="0.5"/>
    <circle cx="400" cy="880" r="200" fill="#fed7aa" opacity="0.4"/>
  </g>
  <g fill="#ffffff" opacity="0.9">
    <rect x="220" y="560" width="60" height="120" rx="10"/>
    <rect x="310" y="480" width="60" height="200" rx="10"/>
    <rect x="400" y="540" width="60" height="140" rx="10"/>
    <rect x="490" y="420" width="60" height="260" rx="10"/>
  </g>
  <g stroke="#ffffff" stroke-width="4" fill="none" opacity="0.8" stroke-linecap="round" stroke-linejoin="round">
    <path d="M220 400 L310 360 L400 380 L490 300 L560 330"/>
  </g>
  <g fill="#ffffff" opacity="0.9">
    <circle cx="220" cy="400" r="9"/>
    <circle cx="310" cy="360" r="9"/>
    <circle cx="400" cy="380" r="9"/>
    <circle cx="490" cy="300" r="9"/>
  </g>
</svg>
