<svg xmlns="http://www.w3.org/2000/svg" width="1200" height="750" viewBox="0 0 1200 750" fill="none">
  <defs>
    <linearGradient id="bg" x1="0" y1="0" x2="1" y2="1">
      <stop offset="0" stop-color="#f59e0b"/>
      <stop offset="0.55" stop-color="#ea580c"/>
      <stop offset="1" stop-color="#9a3412"/>
    </linearGradient>
    <filter id="blur" x="-50%" y="-50%" width="200%" height="200%"><feGaussianBlur stdDeviation="80"/></filter>
  </defs>
  <rect width="1200" height="750" fill="url(#bg)"/>
  <g filter="url(#blur)">
    <circle cx="280" cy="200" r="250" fill="#fcd34d" opacity="0.55"/>
    <circle cx="960" cy="480" r="280" fill="#fb7185" opacity="0.4"/>
    <circle cx="620" cy="720" r="220" fill="#fdba74" opacity="0.45"/>
  </g>
  <g>
    <rect x="630" y="210" width="450" height="320" rx="22" fill="#ffffff" opacity="0.12"/>
    <rect x="630" y="210" width="450" height="50" rx="22" fill="#ffffff" opacity="0.14"/>
    <rect x="664" y="296" width="230" height="24" rx="12" fill="#fff" opacity="0.9"/>
    <rect x="664" y="338" width="350" height="13" rx="6" fill="#fff" opacity="0.5"/>
    <rect x="664" y="366" width="300" height="13" rx="6" fill="#fff" opacity="0.5"/>
    <rect x="664" y="424" width="140" height="44" rx="22" fill="#fff" opacity="0.85"/>
  </g>
  <g opacity="0.9">
    <circle cx="330" cy="410" r="100" fill="none" stroke="#fff" stroke-width="7" opacity="0.55"/>
    <path d="M430 388 q48 0 48 38 t-48 38" fill="none" stroke="#fff" stroke-width="7" opacity="0.55"/>
    <path d="M286 528 q44 26 88 0" fill="none" stroke="#fff" stroke-width="7" opacity="0.5" stroke-linecap="round"/>
  </g>
</svg>
