<svg xmlns="http://www.w3.org/2000/svg" width="1200" height="675" viewBox="0 0 1200 675" fill="none">
  <defs>
    <linearGradient id="bg" x1="0" y1="0" x2="1" y2="1">
      <stop offset="0" stop-color="#f59e0b"/>
      <stop offset="0.55" stop-color="#ea580c"/>
      <stop offset="1" stop-color="#9a3412"/>
    </linearGradient>
    <filter id="blur" x="-50%" y="-50%" width="200%" height="200%"><feGaussianBlur stdDeviation="80"/></filter>
  </defs>
  <rect width="1200" height="675" fill="url(#bg)"/>
  <g filter="url(#blur)">
    <circle cx="260" cy="180" r="240" fill="#fcd34d" opacity="0.55"/>
    <circle cx="980" cy="420" r="280" fill="#fb7185" opacity="0.4"/>
    <circle cx="600" cy="640" r="220" fill="#fdba74" opacity="0.45"/>
  </g>
  <g>
    <rect x="640" y="150" width="430" height="300" rx="20" fill="#ffffff" opacity="0.12"/>
    <rect x="640" y="150" width="430" height="48" rx="20" fill="#ffffff" opacity="0.14"/>
    <circle cx="672" cy="174" r="6" fill="#fff" opacity="0.8"/><circle cx="694" cy="174" r="6" fill="#fff" opacity="0.6"/><circle cx="716" cy="174" r="6" fill="#fff" opacity="0.45"/>
    <rect x="672" y="230" width="220" height="22" rx="11" fill="#fff" opacity="0.9"/>
    <rect x="672" y="268" width="330" height="12" rx="6" fill="#fff" opacity="0.5"/>
    <rect x="672" y="294" width="280" height="12" rx="6" fill="#fff" opacity="0.5"/>
    <rect x="672" y="346" width="130" height="40" rx="20" fill="#fff" opacity="0.85"/>
  </g>
  <g opacity="0.9">
    <circle cx="320" cy="370" r="92" fill="none" stroke="#fff" stroke-width="6" opacity="0.55"/>
    <path d="M412 350 q44 0 44 34 t-44 34" fill="none" stroke="#fff" stroke-width="6" opacity="0.55"/>
    <path d="M278 478 q42 24 84 0" fill="none" stroke="#fff" stroke-width="6" opacity="0.5" stroke-linecap="round"/>
  </g>
</svg>
