<svg xmlns="http://www.w3.org/2000/svg" width="1200" height="750" viewBox="0 0 1200 750" fill="none">
  <defs>
    <linearGradient id="bg" x1="0" y1="0" x2="1" y2="1">
      <stop offset="0" stop-color="#1e293b"/>
      <stop offset="0.55" stop-color="#0f766e"/>
      <stop offset="1" stop-color="#1e3a8a"/>
    </linearGradient>
    <filter id="blur" x="-50%" y="-50%" width="200%" height="200%"><feGaussianBlur stdDeviation="80"/></filter>
  </defs>
  <rect width="1200" height="750" fill="url(#bg)"/>
  <g filter="url(#blur)">
    <circle cx="280" cy="220" r="250" fill="#2dd4bf" opacity="0.45"/>
    <circle cx="960" cy="470" r="280" fill="#6366f1" opacity="0.45"/>
    <circle cx="620" cy="720" r="220" fill="#22d3ee" opacity="0.35"/>
  </g>
  <g fill="#ffffff" opacity="0.9">
    <rect x="210" y="470" width="60" height="140" rx="9"/>
    <rect x="300" y="400" width="60" height="210" rx="9"/>
    <rect x="390" y="450" width="60" height="160" rx="9"/>
    <rect x="480" y="350" width="60" height="260" rx="9"/>
  </g>
  <g stroke="#5eead4" stroke-width="6" fill="none" opacity="0.95" stroke-linecap="round" stroke-linejoin="round">
    <path d="M640 400 L740 350 L840 390 L940 300 L1020 340"/>
  </g>
  <g fill="#5eead4">
    <circle cx="640" cy="400" r="10"/><circle cx="740" cy="350" r="10"/><circle cx="840" cy="390" r="10"/><circle cx="940" cy="300" r="10"/><circle cx="1020" cy="340" r="10"/>
  </g>
  <g stroke="#ffffff" stroke-width="2" opacity="0.1">
    <path d="M190 330 H1030 M190 460 H1030 M190 590 H1030"/>
  </g>
</svg>
