<svg xmlns="http://www.w3.org/2000/svg" width="1200" height="675" viewBox="0 0 1200 675" fill="none">
  <defs>
    <linearGradient id="bg" x1="0" y1="0" x2="1" y2="1">
      <stop offset="0" stop-color="#1e293b"/>
      <stop offset="0.55" stop-color="#0f766e"/>
      <stop offset="1" stop-color="#1e3a8a"/>
    </linearGradient>
    <filter id="blur" x="-50%" y="-50%" width="200%" height="200%"><feGaussianBlur stdDeviation="80"/></filter>
  </defs>
  <rect width="1200" height="675" fill="url(#bg)"/>
  <g filter="url(#blur)">
    <circle cx="260" cy="200" r="240" fill="#2dd4bf" opacity="0.45"/>
    <circle cx="980" cy="420" r="280" fill="#6366f1" opacity="0.45"/>
    <circle cx="620" cy="660" r="220" fill="#22d3ee" opacity="0.35"/>
  </g>
  <g fill="#ffffff" opacity="0.9">
    <rect x="200" y="430" width="56" height="120" rx="8"/>
    <rect x="284" y="370" width="56" height="180" rx="8"/>
    <rect x="368" y="410" width="56" height="140" rx="8"/>
    <rect x="452" y="320" width="56" height="230" rx="8"/>
  </g>
  <g stroke="#5eead4" stroke-width="5" fill="none" opacity="0.95" stroke-linecap="round" stroke-linejoin="round">
    <path d="M620 360 L720 320 L820 350 L920 280 L1010 310"/>
  </g>
  <g fill="#5eead4">
    <circle cx="620" cy="360" r="9"/><circle cx="720" cy="320" r="9"/><circle cx="820" cy="350" r="9"/><circle cx="920" cy="280" r="9"/><circle cx="1010" cy="310" r="9"/>
  </g>
  <g stroke="#ffffff" stroke-width="2" opacity="0.1">
    <path d="M180 300 H1020 M180 420 H1020 M180 540 H1020"/>
  </g>
</svg>
