<svg xmlns="http://www.w3.org/2000/svg" width="1200" height="800" viewBox="0 0 1200 800" fill="none">
  <defs>
    <linearGradient id="bg" x1="0" y1="0" x2="1" y2="1">
      <stop offset="0" stop-color="#0f172a"/><stop offset="0.6" stop-color="#0f766e"/><stop offset="1" stop-color="#1e3a8a"/>
    </linearGradient>
    <filter id="blur" x="-50%" y="-50%" width="200%" height="200%"><feGaussianBlur stdDeviation="90"/></filter>
  </defs>
  <rect width="1200" height="800" fill="url(#bg)"/>
  <g filter="url(#blur)">
    <circle cx="320" cy="240" r="280" fill="#2dd4bf" opacity="0.4"/>
    <circle cx="920" cy="560" r="300" fill="#6366f1" opacity="0.45"/>
  </g>
  <g stroke="#ffffff" stroke-width="2" opacity="0.1">
    <path d="M200 280 H1000 M200 420 H1000 M200 560 H1000"/>
  </g>
  <g fill="#ffffff" opacity="0.85">
    <rect x="260" y="500" width="64" height="150" rx="9"/>
    <rect x="356" y="420" width="64" height="230" rx="9"/>
    <rect x="452" y="470" width="64" height="180" rx="9"/>
  </g>
  <g stroke="#5eead4" stroke-width="6" fill="none" opacity="0.95" stroke-linecap="round" stroke-linejoin="round">
    <path d="M640 420 L760 360 L880 400 L1000 320"/>
  </g>
  <g fill="#5eead4">
    <circle cx="640" cy="420" r="11"/><circle cx="760" cy="360" r="11"/><circle cx="880" cy="400" r="11"/><circle cx="1000" cy="320" r="11"/>
  </g>
</svg>
